<svg xmlns="http://www.w3.org/2000/svg" viewBox="0 0 64 64">
  <defs>
    <linearGradient id="tg-gradient" x1="16" x2="48" y1="12" y2="52" gradientUnits="userSpaceOnUse">
      <stop offset="0" stop-color="#37aee2" />
      <stop offset="1" stop-color="#1e96c8" />
    </linearGradient>
  </defs>
  <circle cx="32" cy="32" r="30" fill="url(#tg-gradient)" />
  <path fill="#c8daea" d="M26.3 37.7 24 45.4c-.2.7-.7.9-1.3.6l6.3-19.8" />
  <path fill="#fff" d="M46.8 20.6 20.7 31.1c-1.5.6-1.4 1.5-.3 1.9l6.6 2 3.2 9.5c.4 1.1.7 1.5 1.5 1.5.9 0 1.4-.3 1.9-.8l4.5-4.3 7.3 5.4c1.3.7 2.3.3 2.7-1.2l4.9-20.5c.5-2.1-.8-3-2.2-2.5Z" />
</svg>
