<svg xmlns="http://www.w3.org/2000/svg" viewBox="0 0 64 64" role="img" aria-labelledby="title">
  <title>Slack Trigger Icon</title>
  <g fill="none" fill-rule="evenodd">
    <rect width="64" height="64" rx="16" fill="#1d1f2f"/>
    <path d="M22 18a4 4 0 1 1 4 4h-4v-4zm6 0a2 2 0 1 0-2 2h2v-2zm0 6h-6a4 4 0 0 1 0-8h6v8zm14-6a4 4 0 0 1 0 8h-6v-8h6zm-6 6h6a2 2 0 1 0 0-4h-6v4zm0 2h4a4 4 0 1 1-4 4v-4zm0 4v-4h2v4a2 2 0 1 0 2-2h-2zm-8 4a4 4 0 1 1-4-4h4v4zm-4-2a2 2 0 1 0 2 2v-2h-2zm2-2h-4a4 4 0 1 1 4-4v4zm0-4v4h-2v-4a2 2 0 1 0-2 2h2z" fill="#ffffff" opacity=".9"/>
  </g>
</svg>
